<?xml version="1.0"?>
<svg xmlns="http://www.w3.org/2000/svg" height="512px" viewBox="-40 0 480 480" width="512px"><g><path d="m56 432c-4.417969 0-8 3.582031-8 8s3.582031 8 8 8h120c4.417969 0 8-3.582031 8-8s-3.582031-8-8-8zm0 0" data-original="#000000" class="active-path" data-old_color="#000000" fill="#1A3665"/><path d="m312 384c4.417969 0 8-3.582031 8-8s-3.582031-8-8-8h-256c-4.417969 0-8 3.582031-8 8s3.582031 8 8 8h160v16h-160c-4.417969 0-8 3.582031-8 8s3.582031 8 8 8h160v24c0 3.03125 1.710938 5.800781 4.421875 7.15625s5.953125 1.0625 8.378906-.757812l27.199219-20.398438 27.199219 20.398438c2.4375 1.816406 5.691406 2.097656 8.402343.722656 2.6875-1.355469 4.390626-4.109375 4.398438-7.121094v-24h16c4.417969 0 8-3.582031 8-8s-3.582031-8-8-8h-16v-16zm-32 40-19.199219-14.398438c-2.84375-2.136718-6.757812-2.136718-9.601562 0l-19.199219 14.398438v-40h48zm0 0" data-original="#000000" class="active-path" data-old_color="#000000" fill="#1A3665"/><path d="m104 208c-4.417969 0-8 3.582031-8 8s3.582031 8 8 8h32c4.417969 0 8-3.582031 8-8s-3.582031-8-8-8zm0 0" data-original="#000000" class="active-path" data-old_color="#000000" fill="#1A3665"/><path d="m168 208c-4.417969 0-8 3.582031-8 8s3.582031 8 8 8h24c4.417969 0 8-3.582031 8-8s-3.582031-8-8-8zm0 0" data-original="#000000" class="active-path" data-old_color="#000000" fill="#1A3665"/><path d="m152 152c4.417969 0 8-3.582031 8-8s-3.582031-8-8-8h-120c-4.417969 0-8 3.582031-8 8s3.582031 8 8 8zm0 0" data-original="#000000" class="active-path" data-old_color="#000000" fill="#1A3665"/><path d="m208 152c4.417969 0 8-3.582031 8-8s-3.582031-8-8-8h-24c-4.417969 0-8 3.582031-8 8s3.582031 8 8 8zm0 0" data-original="#000000" class="active-path" data-old_color="#000000" fill="#1A3665"/><path d="m272 152c4.417969 0 8-3.582031 8-8s-3.582031-8-8-8h-32c-4.417969 0-8 3.582031-8 8s3.582031 8 8 8zm0 0" data-original="#000000" class="active-path" data-old_color="#000000" fill="#1A3665"/><path d="m224 208c-4.417969 0-8 3.582031-8 8s3.582031 8 8 8h144c4.417969 0 8-3.582031 8-8s-3.582031-8-8-8zm0 0" data-original="#000000" class="active-path" data-old_color="#000000" fill="#1A3665"/><path d="m360 48c4.417969 0 8-3.582031 8-8s-3.582031-8-8-8h-144c-4.417969 0-8 3.582031-8 8s3.582031 8 8 8zm0 0" data-original="#000000" class="active-path" data-old_color="#000000" fill="#1A3665"/><path d="m400 56v-32c0-13.253906-10.746094-24-24-24h-320c-4.417969 0-8 3.582031-8 8s3.582031 8 8 8h320c4.417969 0 8 3.582031 8 8v32c0 4.417969-3.582031 8-8 8h-208v-16h16c4.417969 0 8-3.582031 8-8s-3.582031-8-8-8h-88c-4.417969 0-8 3.582031-8 8s3.582031 8 8 8h8v16h-96c-4.417969 0-8 3.582031-8 8s3.582031 8 8 8h96v16h-72c-4.417969 0-8 3.582031-8 8s3.582031 8 8 8h248c4.417969 0 8-3.582031 8-8s-3.582031-8-8-8h-112v-16h120c13.253906 0 24 10.746094 24 24v48c0 13.253906-10.746094 24-24 24h-280c-4.417969 0-8 3.582031-8 8s3.582031 8 8 8h56c-12.988281 16.757812-10.332031 40.800781 6 54.320312-15.882812 8.324219-26.820312 23.75-29.417969 41.496094-2.597656 17.742188 3.464844 35.660156 16.296875 48.183594h-16.878906c-22.089844 0-40 17.910156-40 40v64c0 22.089844 17.910156 40 40 40h304c4.417969 0 8-3.582031 8-8v-48c0-4.417969-3.582031-8-8-8s-8 3.582031-8 8v40h-296c-13.253906 0-24-10.746094-24-24v-64c0-13.253906 10.746094-24 24-24h296v24c0 4.417969 3.582031 8 8 8s8-3.582031 8-8v-32c0-4.417969-3.582031-8-8-8h-32v-80h80c4.417969 0 8-3.582031 8-8s-3.582031-8-8-8h-296c-13.253906 0-24-10.746094-24-24s10.746094-24 24-24h296c4.417969 0 8-3.582031 8-8s-3.582031-8-8-8h-72c5.234375-6.902344 8.046875-15.335938 8-24v-48c.046875-8.664062-2.765625-17.097656-8-24h56c13.253906 0 24-10.746094 24-24zm-248-8v32l-9.601562-12.800781c-1.507813-2.011719-3.878907-3.199219-6.398438-3.199219s-4.890625 1.1875-6.398438 3.199219l-9.601562 12.800781v-32zm-24 48 8-10.640625 8 10.640625zm168 160v16h-200c-4.417969 0-8 3.582031-8 8s3.582031 8 8 8h200v16h-200c-4.417969 0-8 3.582031-8 8s3.582031 8 8 8h200v16h-200c-22.089844 0-40-17.910156-40-40s17.910156-40 40-40zm0 0" data-original="#000000" class="active-path" data-old_color="#000000" fill="#1A3665"/></g> </svg>
